<?xml version="1.0" standalone="no"?>
<!DOCTYPE svg PUBLIC "-//W3C//DTD SVG 20010904//EN"
 "http://www.w3.org/TR/2001/REC-SVG-20010904/DTD/svg10.dtd">
<svg version="1.0" xmlns="http://www.w3.org/2000/svg"
 width="1478.000000pt" height="1478.000000pt" viewBox="0 0 1478.000000 1478.000000"
 preserveAspectRatio="xMidYMid meet">
<metadata>
Created by potrace 1.11, written by Peter Selinger 2001-2013
</metadata>
<g transform="translate(0.000000,1478.000000) scale(0.100000,-0.100000)"
fill="#000000" stroke="none">
<path d="M6855 14310 c-1062 -68 -1900 -317 -2564 -762 -598 -402 -1044 -981
-1275 -1655 -291 -851 -285 -2030 15 -2822 213 -563 709 -1189 1284 -1623 446
-336 1005 -647 1675 -933 1430 -610 1870 -832 2318 -1167 290 -217 444 -404
537 -652 104 -276 106 -677 5 -986 -183 -559 -705 -900 -1580 -1030 -287 -43
-766 -61 -1085 -41 -906 56 -1916 312 -2672 676 -146 70 -173 80 -178 66 -57
-144 -829 -2202 -832 -2217 -4 -17 12 -28 114 -76 446 -210 1345 -473 2023
-592 596 -104 1254 -156 1985 -156 1586 1 2822 364 3655 1076 661 565 1074
1322 1219 2229 47 297 55 421 56 840 0 430 -7 527 -61 810 -120 627 -376 1108
-889 1669 -364 398 -949 814 -1645 1168 -209 106 -311 153 -852 392 -929 411
-1408 648 -1750 866 -346 221 -573 417 -710 610 -208 295 -265 723 -147 1090
112 345 411 630 820 783 473 177 1222 206 2104 81 728 -103 1523 -349 1952
-604 l53 -32 9 26 c70 182 813 2173 814 2180 4 20 -310 176 -523 261 -666 264
-1536 437 -2560 511 -262 18 -1099 27 -1315 14z"/>
</g>
</svg>
